<svg id="logo" data-name="Group 1" xmlns="http://www.w3.org/2000/svg" width="136.7" height="39.378" viewBox="0 0 136.7 39.378">
  <path id="Path_1" data-name="Path 1" d="M51.5,41.111A16.065,16.065,0,1,1,35.43,25.046,16.065,16.065,0,0,1,51.5,41.111" transform="translate(-15.851 -21.923)" fill="#fff"/>
  <path id="Path_2" data-name="Path 2" d="M46.535,47.746A2.559,2.559,0,0,1,43.975,50.3H30.207V51.69a2.559,2.559,0,0,1-5.117,0V35.66A2.558,2.558,0,0,1,27.648,33.1H41.417V31.717a2.559,2.559,0,0,1,5.117,0Zm7.242-13.715A19.754,19.754,0,1,0,55.324,41.7a19.628,19.628,0,0,0-1.547-7.663" transform="translate(-15.945 -22.006)" fill="#40f280"/>
  <rect id="Rectangle_2" data-name="Rectangle 2" width="11.21" height="6.968" transform="translate(14.262 16.213)" fill="#40f280"/>
  <g id="Group_6" data-name="Group 6" transform="translate(44.187 6.052)">
    <g id="Group_2" data-name="Group 2">
      <g id="Group_1-2" data-name="Group 1" transform="translate(0 0)">
        <path id="Path_3" data-name="Path 3" d="M66.333,30.725c-.239-.419-.718-.629-1.527-.629H61.543v3.412h3.218c.913,0,1.347-.239,1.572-.613a2.187,2.187,0,0,0,.18-1.062,2.393,2.393,0,0,0-.18-1.108m2.095,3.787a3.787,3.787,0,0,1-3.1,1.182c-.344.015-3.787-.014-3.787-.014V39.72H58.954V27.9h6.39a3.656,3.656,0,0,1,3.024,1.078,4.414,4.414,0,0,1,.748,2.828,4.176,4.176,0,0,1-.688,2.709" transform="translate(-58.954 -27.897)" fill="#fff"/>
        <path id="Path_4" data-name="Path 4" d="M77.753,30.7c-.21-.419-.659-.614-1.361-.614H72.949v2.964h3.592a1.254,1.254,0,0,0,1.183-.494,2.477,2.477,0,0,0,.164-.912,2.719,2.719,0,0,0-.135-.943M80,33.494A2.174,2.174,0,0,1,78.487,34.6l2.769,5.118h-2.9l-2.3-4.595H72.935V39.72H70.39V27.9h6.586a3.1,3.1,0,0,1,2.933,1.332,3.826,3.826,0,0,1,.524,2.2A4.2,4.2,0,0,1,80,33.494" transform="translate(-58.641 -27.897)" fill="#fff"/>
      </g>
      <rect id="Rectangle_3" data-name="Rectangle 3" width="2.634" height="11.823" transform="translate(23.933 0)" fill="#fff"/>
      <path id="Path_5" data-name="Path 5" d="M93.494,39.72H90.381L85.891,27.9h2.754L92,37.071,95.35,27.9h2.664Z" transform="translate(-58.216 -27.897)" fill="#fff"/>
      <path id="Path_6" data-name="Path 6" d="M102.86,31.159l-.269-.972-.285.987L100.959,34.8h3.157ZM99.073,39.72H96.424L101,27.9h3.263l4.325,11.823H105.9l-1-2.784h-4.774Z" transform="translate(-57.927 -27.897)" fill="#fff"/>
      <path id="Path_7" data-name="Path 7" d="M113.5,30.082V39.72h-2.634V30.082h-3.846V27.9h10.342v2.185Z" transform="translate(-57.637 -27.897)" fill="#fff"/>
      <path id="Path_8" data-name="Path 8" d="M118.218,39.72V27.9h9.025v2.23h-6.5v2.559H127v2.245h-6.256v2.574h6.57V39.72Z" transform="translate(-57.33 -27.897)" fill="#fff"/>
    </g>
    <g id="Group_5" data-name="Group 5" transform="translate(0 15.107)">
      <g id="Group_3" data-name="Group 3">
        <path id="Path_9" data-name="Path 9" d="M66.333,45.6c-.239-.419-.718-.629-1.527-.629H61.543v3.412h3.218c.913,0,1.347-.239,1.572-.613a2.187,2.187,0,0,0,.18-1.062,2.393,2.393,0,0,0-.18-1.108m2.095,3.786a3.785,3.785,0,0,1-3.1,1.183c-.344.015-3.787-.014-3.787-.014V54.6H58.954V42.776h6.39a3.656,3.656,0,0,1,3.024,1.078,4.412,4.412,0,0,1,.748,2.828,4.171,4.171,0,0,1-.688,2.708" transform="translate(-58.954 -42.596)" fill="#fff"/>
        <path id="Path_10" data-name="Path 10" d="M77.753,45.575c-.21-.419-.659-.614-1.361-.614H72.949v2.964h3.592a1.254,1.254,0,0,0,1.183-.494,2.477,2.477,0,0,0,.164-.912,2.719,2.719,0,0,0-.135-.943M80,48.373a2.174,2.174,0,0,1-1.511,1.108L81.256,54.6h-2.9l-2.3-4.6H72.935v4.6H70.39V42.776h6.586a3.1,3.1,0,0,1,2.933,1.332,3.826,3.826,0,0,1,.524,2.2A4.2,4.2,0,0,1,80,48.373" transform="translate(-58.641 -42.596)" fill="#fff"/>
        <path id="Path_11" data-name="Path 11" d="M89.647,51.79a4.756,4.756,0,0,0,.808-3.113,4.885,4.885,0,0,0-.734-3.008,2.936,2.936,0,0,0-2.425-.913,2.822,2.822,0,0,0-2.394.929,5.1,5.1,0,0,0-.734,3.008,4.709,4.709,0,0,0,.883,3.157,2.9,2.9,0,0,0,2.26.793,2.979,2.979,0,0,0,2.335-.853M92.057,44.5a6.788,6.788,0,0,1,1,4.116,7.364,7.364,0,0,1-1.048,4.266c-.823,1.227-2.395,1.885-4.715,1.885-2.3,0-3.831-.629-4.684-1.857a7.1,7.1,0,0,1-1.078-4.265,6.638,6.638,0,0,1,1.018-4.041C83.436,43.379,84.9,42.6,87.3,42.6c2.351,0,3.862.673,4.76,1.9" transform="translate(-58.335 -42.601)" fill="#fff"/>
        <path id="Path_12" data-name="Path 12" d="M101.7,45.6c-.239-.419-.719-.629-1.527-.629H96.915v3.412h3.218c.913,0,1.347-.239,1.572-.613a2.189,2.189,0,0,0,.179-1.062A2.4,2.4,0,0,0,101.7,45.6M103.8,49.39a3.784,3.784,0,0,1-3.1,1.183c-.344.015-3.787-.014-3.787-.014V54.6H94.326V42.776h6.39a3.656,3.656,0,0,1,3.024,1.078,4.418,4.418,0,0,1,.748,2.828,4.171,4.171,0,0,1-.688,2.708" transform="translate(-57.985 -42.596)" fill="#fff"/>
      </g>
      <path id="Path_13" data-name="Path 13" d="M105.762,54.6V42.776h9.025v2.23h-6.5v2.559h6.256V49.81h-6.256v2.574h6.57V54.6Z" transform="translate(-57.672 -42.596)" fill="#fff"/>
      <g id="Group_4" data-name="Group 4" transform="translate(58.957 0.18)">
        <path id="Path_14" data-name="Path 14" d="M123.7,45.575c-.21-.419-.659-.614-1.362-.614H118.9v2.964h3.592a1.257,1.257,0,0,0,1.183-.494,2.477,2.477,0,0,0,.164-.912,2.744,2.744,0,0,0-.135-.943m2.245,2.8a2.178,2.178,0,0,1-1.511,1.108L127.2,54.6h-2.9L122,50h-3.113v4.6h-2.544V42.776h6.585a3.1,3.1,0,0,1,2.933,1.332,3.826,3.826,0,0,1,.524,2.2,4.208,4.208,0,0,1-.434,2.066" transform="translate(-116.339 -42.776)" fill="#fff"/>
      </g>
      <path id="Path_15" data-name="Path 15" d="M133.556,44.961V54.6h-2.634V44.961h-3.846V42.776h10.342v2.185Z" transform="translate(-57.088 -42.596)" fill="#fff"/>
      <path id="Path_16" data-name="Path 16" d="M144.559,50.633V54.6h-2.6V50.648l-4.58-7.872h2.784l3.113,5.508,3.352-5.508h2.694Z" transform="translate(-56.805 -42.596)" fill="#fff"/>
    </g>
  </g>
</svg>
